<?xml version="1.0" encoding="UTF-8" standalone="no"?>
<svg
   inkscape:version="1.1.1 (c3084ef, 2021-09-22)"
   sodipodi:docname="citrad_arrow_compact.svg"
   version="1.1"
   viewBox="0 0 15 15"
   height="15"
   width="15"
   id="viewpoint"
   xmlns:inkscape="http://www.inkscape.org/namespaces/inkscape"
   xmlns:sodipodi="http://sodipodi.sourceforge.net/DTD/sodipodi-0.dtd"
   xmlns="http://www.w3.org/2000/svg"
   xmlns:svg="http://www.w3.org/2000/svg">
  <defs
     id="defs828" />
  <sodipodi:namedview
     id="namedview826"
     pagecolor="#505050"
     bordercolor="#eeeeee"
     borderopacity="1"
     inkscape:pageshadow="0"
     inkscape:pageopacity="0"
     inkscape:pagecheckerboard="0"
     showgrid="false"
     inkscape:snap-object-midpoints="true"
     inkscape:zoom="27.418354"
     inkscape:cx="5.7990352"
     inkscape:cy="8.5709011"
     inkscape:window-width="1440"
     inkscape:window-height="847"
     inkscape:window-x="0"
     inkscape:window-y="25"
     inkscape:window-maximized="0"
     inkscape:current-layer="viewpoint" />
  <path
     style="fill:none;stroke:#000000;stroke-width:1.8944px;stroke-linecap:round;stroke-linejoin:round;stroke-miterlimit:4;stroke-dasharray:none;stroke-opacity:1"
     d="m 9.402485,6.45305 c 0,0 -0.5052,-1.20326 -1.831,-1.24529 -0.02362,-7.5e-4 -0.04743,-0.00112 -0.07141,-0.00112 -1.25333,0 -1.90256,1.04961 -1.90256,1.04961"
     id="path14812" />
  <path
     d="m 8.9104415,9.24125 c 0,-0.5705 -0.34365,-1.0848 -0.8707,-1.3031 -0.52705,-0.2183 -1.13372,-0.0976 -1.53711,0.3058 -0.40338,0.4033 -0.52406,1.01 -0.30575,1.5371 0.21832,0.52695 0.73262,0.87065 1.3031,0.87065 0.37408,0 0.73283,-0.1486 0.99735,-0.4132 0.26451,-0.26445 0.41311,-0.62315 0.41311,-0.99725 z"
     style="fill:#000000;stroke:#000000;stroke-width:0.177627;stroke-linecap:round;stroke-linejoin:round;stroke-miterlimit:4;stroke-dasharray:none;stroke-opacity:1"
     id="circle14816" />
</svg>
