<?xml version="1.0" encoding="UTF-8" standalone="no"?>
<svg
   inkscape:version="1.1.1 (c3084ef, 2021-09-22)"
   sodipodi:docname="citrad_arrow.svg"
   version="1.1"
   viewBox="0 0 15 15"
   height="15"
   width="15"
   id="viewpoint"
   xmlns:inkscape="http://www.inkscape.org/namespaces/inkscape"
   xmlns:sodipodi="http://sodipodi.sourceforge.net/DTD/sodipodi-0.dtd"
   xmlns="http://www.w3.org/2000/svg"
   xmlns:svg="http://www.w3.org/2000/svg">
  <defs
     id="defs828" />
  <sodipodi:namedview
     id="namedview826"
     pagecolor="#505050"
     bordercolor="#eeeeee"
     borderopacity="1"
     inkscape:pageshadow="0"
     inkscape:pageopacity="0"
     inkscape:pagecheckerboard="0"
     showgrid="false"
     inkscape:snap-object-midpoints="true"
     inkscape:zoom="19.124728"
     inkscape:cx="4.810526"
     inkscape:cy="6.7974824"
     inkscape:window-width="1440"
     inkscape:window-height="847"
     inkscape:window-x="0"
     inkscape:window-y="25"
     inkscape:window-maximized="1"
     inkscape:current-layer="viewpoint" />
  <path
     style="fill:none;stroke:#000000;stroke-width:1.04822px;stroke-linecap:round;stroke-linejoin:round;stroke-miterlimit:4;stroke-dasharray:none;stroke-opacity:1"
     d="m 9.3029066,2.061052 c 0,0 -1.5451541,-1.3835278 -1.7896904,-1.3912689 -0.00433,-1.383e-4 -0.024667,0.012527 -0.057595,0.035341 -0.475013,0.1950303 -1.7585275,1.3196353 -1.7585275,1.3196353"
     id="path14808" />
  <path
     style="fill:none;stroke:#000000;stroke-width:1.04822px;stroke-linecap:round;stroke-linejoin:round;stroke-miterlimit:4;stroke-dasharray:none;stroke-opacity:1"
     d="m 8.9277633,4.0091372 c 0,0 -0.9123218,-1.0246802 -1.4013891,-1.0401677 -0.00875,-2.878e-4 -0.025459,0.00594 -0.048554,0.017358 -0.584311,0.097507 -1.4055833,0.9502137 -1.4055833,0.9502137"
     id="path14810" />
  <path
     style="fill:none;stroke:#000000;stroke-width:1.04822px;stroke-linecap:round;stroke-linejoin:round;stroke-miterlimit:4;stroke-dasharray:none;stroke-opacity:1"
     d="m 8.5526922,5.9571946 c 0,0 -0.2795342,-0.6657936 -1.0131377,-0.6890499 -0.01307,-4.15e-4 -0.026244,-6.196e-4 -0.039513,-6.196e-4 -0.6934986,0 -1.0527337,0.5807752 -1.0527337,0.5807752"
     id="path14812" />
  <path
     d="m 8.2804323,7.4999754 c 0,-0.3156723 -0.1901501,-0.6002473 -0.4817799,-0.7210381 C 7.5070226,6.6581468 7.1713369,6.7249329 6.9481312,6.948144 6.7249311,7.1713 6.6581559,7.5070024 6.7789522,7.79866 6.8997536,8.0902615 7.184329,8.2804398 7.4999898,8.2804398 c 0.2069877,0 0.405493,-0.082223 0.5518585,-0.2286345 0.14636,-0.1463539 0.228584,-0.3448313 0.228584,-0.5518299 z"
     style="fill:#000000;stroke:#000000;stroke-width:0.0982855;stroke-linecap:round;stroke-linejoin:round;stroke-miterlimit:4;stroke-dasharray:none;stroke-opacity:1"
     id="circle14816" />
</svg>
